# xmcd CD database file
#
# Track frame offsets:
#	150
#	18824
#	33195
#	46737
#	60369
#	71790
#	80259
#	98352
#	111973
#	123056
#	140120
#	153812
#
# Disc length: 2199 seconds
#
# Revision: 1
# Processed by: cddbd v1.5.2PL0 Copyright (c) Steve Scherf et al.
# Submitted via: CDex 1.51
#
DISCID=8608950c
DTITLE=Damien Jurado - Saint Bartlett
DYEAR=2010
DGENRE=Indie Rock
TTITLE0=Cloudy Shoes
TTITLE1=Arkansas
TTITLE2=Rachel and Cali
TTITLE3=Throwing Your Voice
TTITLE4=Wallingford
TTITLE5=Pear
TTITLE6=Kansas City
TTITLE7=Harborview
TTITLE8=Kalama
TTITLE9=The Falling Snow
TTITLE10=Beacon Hill
TTITLE11=With Lightning in Your Hands
EXTD=YEAR: 2010
EXTT0=
EXTT1=
EXTT2=
EXTT3=
EXTT4=
EXTT5=
EXTT6=
EXTT7=
EXTT8=
EXTT9=
EXTT10=
EXTT11=
PLAYORDER=
